<svg width="180" height="203" viewBox="0 0 180 203" fill="none" xmlns="http://www.w3.org/2000/svg">
<path fill-rule="evenodd" clip-rule="evenodd" d="M166.972 202.184L96.2066 113.223H18.971V159.051H48.7822V170.373H0V159.051H8.13091V11.3223H0V0H71.1665C79.223 0 87.6128 0.629197 96.0998 2.13506C104.603 3.65064 112.339 6.50224 119.094 10.7465C125.837 15.0182 131.451 20.9058 135.79 28.3171C140.126 35.785 142.322 45.4785 142.322 57.168C142.322 68.0633 140.229 77.2311 136.102 84.4353C132.006 91.6428 126.668 97.566 120.242 102.043C116.063 104.964 111.505 107.507 106.663 109.361L180 202.184H166.972ZM88.6049 102.965L18.971 15.0846V102.978L88.6049 102.965ZM99.39 100.149C105.912 98.1385 111.552 95.2044 116.178 91.5344C126.482 83.3613 131.491 72.0552 131.491 57.0289C131.491 47.9273 129.698 40.2637 126.16 34.2823C122.627 28.3527 117.88 23.5747 112.053 20.102C106.221 16.6228 99.314 14.2467 91.5213 12.8152C83.4972 11.3919 75.3841 10.7837 67.415 10.7837H28.5812L99.39 100.149Z" fill="#6655FF"/>
</svg>
