<svg width="112" height="125" viewBox="0 0 112 125" fill="none" xmlns="http://www.w3.org/2000/svg">
<g clip-path="url(#clip0)">
<path fill-rule="evenodd" clip-rule="evenodd" d="M92.4403 124.324L53.2627 75.044H10.5029V100.43H27.0072V106.702H0V100.43H4.5015V18.596H0V12.324H39.3998C43.8601 12.324 48.505 12.6725 53.2036 13.5067C57.9112 14.3462 62.194 15.9259 65.934 18.277C69.6667 20.6433 72.7749 23.9048 75.1771 28.0102C77.5775 32.1471 78.7933 37.5168 78.7933 43.9922C78.7933 50.0277 77.6348 55.1062 75.35 59.097C73.0822 63.0895 70.1272 66.3707 66.5692 68.8508C64.2557 70.469 61.7326 71.8775 59.0518 72.9043L99.6531 124.324H92.4403ZM49.0542 69.3615L10.5029 20.6801V69.3687L49.0542 69.3615ZM55.0252 67.8016C58.636 66.6879 61.7586 65.0625 64.3194 63.0295C70.0242 58.502 72.7973 52.239 72.7973 43.9151C72.7973 38.8734 71.8045 34.6281 69.8459 31.3147C67.8899 28.03 65.262 25.3832 62.0355 23.4595C58.8072 21.5322 54.983 20.2159 50.6688 19.423C46.2264 18.6345 41.7348 18.2976 37.3229 18.2976H15.8234L55.0252 67.8016Z" fill="#A0A0A0"/>
</g>
<defs>
<clipPath id="clip0">
<rect width="112" height="125" fill="white"/>
</clipPath>
</defs>
</svg>
